HIERARCHY
ROOT Hips
{
	OFFSET 0.00 0.00 0.00
	CHANNELS 6 Xposition Yposition Zposition Xrotation Yrotation Zrotation
	JOINT Spine
	{
		OFFSET 0.00000 7.53995 0.00000
		CHANNELS 3 Xrotation Yrotation Zrotation
		JOINT Head
		{
			OFFSET 0.00000 15.09381 0.00000
			CHANNELS 3 Xrotation Yrotation Zrotation
			End Site
			{
				OFFSET 0.00000 4.52755 0.00000
			}
		}
		JOINT LeftShoulder
		{
			OFFSET 0.00000 9.73893 0.00000
			CHANNELS 3 Xrotation Yrotation Zrotation
			JOINT LeftArm
			{
				OFFSET 7.08401 0.00000 0.00000
				CHANNELS 3 Xrotation Yrotation Zrotation
				JOINT LeftForeArm
				{
					OFFSET 10.25932 0.00000 0.00000
					CHANNELS 3 Zrotation Yrotation Xrotation
					JOINT LeftHand
					{
						OFFSET 9.89698 0.00000 0.00000
						CHANNELS 3 Xrotation Yrotation Zrotation
						JOINT LeftHandThumb1
						{
							OFFSET 0.00000 0.00000 0.00000
							CHANNELS 3 Xrotation Yrotation Zrotation
							End Site
							{
								OFFSET 0.00000 0.00000 3.93700
							}
						}
						End Site
						{
							OFFSET 3.93700 0.00000 0.00000
						}
					}
				}
			}
		}
		JOINT RightShoulder
		{
			OFFSET 0.00000 9.73893 0.00000
			CHANNELS 3 Xrotation Yrotation Zrotation
			JOINT RightArm
			{
				OFFSET -7.08401 0.00000 0.00000
				CHANNELS 3 Xrotation Yrotation Zrotation
				JOINT RightForeArm
				{
					OFFSET -10.25932 0.00000 0.00000
					CHANNELS 3 Zrotation Yrotation Xrotation
					JOINT RightHand
					{
						OFFSET -9.89698 0.00000 0.00000
						CHANNELS 3 Xrotation Yrotation Zrotation
						JOINT RightHandThumb1
						{
							OFFSET 0.00000 0.00000 0.00000
							CHANNELS 3 Xrotation Yrotation Zrotation
							End Site
							{
								OFFSET 0.00000 0.00000 3.93700
							}
						}
						End Site
						{
							OFFSET -3.93700 0.00000 0.00000
						}
					}
				}
			}
		}
	}
	JOINT LeftUpLeg
	{
		OFFSET 3.34548 0.00000 0.00000
		CHANNELS 3 Xrotation Yrotation Zrotation
		JOINT LeftLeg
		{
			OFFSET 0.00000 -19.11473 0.00000
			CHANNELS 3 Xrotation Yrotation Zrotation
			JOINT LeftFoot
			{
				OFFSET 0.00000 -16.04560 0.00000
				CHANNELS 3 Xrotation Yrotation Zrotation
				JOINT LeftToeBase
				{
					OFFSET 0.00000 -1.43467 5.35428
					CHANNELS 3 Xrotation Yrotation Zrotation
					End Site
					{
						OFFSET 0.00000 0.00000 2.95275
					}
				}
			}
		}
	}
	JOINT RightUpLeg
	{
		OFFSET -3.34548 0.00000 0.00000
		CHANNELS 3 Xrotation Yrotation Zrotation
		JOINT RightLeg
		{
			OFFSET 0.00000 -19.11473 0.00000
			CHANNELS 3 Xrotation Yrotation Zrotation
			JOINT RightFoot
			{
				OFFSET 0.00000 -16.04560 0.00000
				CHANNELS 3 Xrotation Yrotation Zrotation
				JOINT RightToeBase
				{
					OFFSET 0.00000 -1.43467 5.35428
					CHANNELS 3 Xrotation Yrotation Zrotation
					End Site
					{
						OFFSET 0.00000 0.00000 2.95275
					}
				}
			}
		}
	}
}
MOTION
Frames:	22
Frame Time: 0.008333
0.2942 36.9434 1.6550 7.4152 2.3753 0.7443 -5.6587 -5.5489 -1.5445 -5.1706 -10.0349 19.8023 -0.7643 9.3683 21.1144 -37.7103 11.0561 -21.9223 0.0000 -9.2244 -11.7821 0.3603 2.0368 -10.0330 32.8623 24.3270 0.0000 -18.5734 -5.1784 -18.1298 -23.4933 -6.8611 19.7388 0.0000 5.6001 26.4269 4.5775 -16.7331 15.5400 33.1476 -26.2537 -0.0000 -6.4847 5.8740 1.0826 10.9807 -0.0000 -0.0000 -15.0589 5.0881 -7.0364 8.2324 -0.0000 -0.0000 -3.9528 -6.0217 -4.7179 7.5174 -0.0000 -0.0000 -14.3532 -13.1075 20.5083 11.6434 -0.0000 -0.0000
0.2951 36.9437 1.6573 7.4260 2.3915 0.7515 -5.6588 -5.5712 -1.5294 -5.3738 -10.2500 20.1666 -0.7618 9.3631 21.1198 -37.6954 11.0729 -21.9121 0.0000 -9.2359 -11.7735 0.3583 2.0219 -10.0496 32.8623 24.3270 0.0000 -18.6165 -5.1788 -18.1283 -23.5031 -6.8760 19.7491 0.0000 5.6195 26.4133 4.6008 -16.8018 15.5569 33.1476 -26.2537 -0.0000 -6.4907 5.8530 1.0726 10.9787 -0.0000 -0.0000 -15.0583 5.0957 -7.0213 8.2457 -0.0000 -0.0000 -3.9621 -6.0280 -4.7260 7.5206 -0.0000 -0.0000 -14.3635 -13.1374 20.5233 11.7048 -0.0000 -0.0000
0.2942 36.9437 1.6610 7.4342 2.4147 0.7512 -5.6549 -5.5862 -1.5155 -5.6035 -10.4908 20.4959 -0.7785 9.3552 21.1497 -37.6254 11.0723 -21.9517 0.0000 -9.2689 -11.9285 0.3562 2.0482 -9.8669 32.8623 24.3270 0.0000 -18.6240 -5.2012 -18.1116 -23.5011 -6.8813 19.7543 0.0000 5.6357 26.3863 4.5934 -16.8147 15.5219 33.1476 -26.2537 -0.0000 -6.4932 5.8372 1.0722 10.9716 -0.0000 -0.0000 -15.0502 5.0863 -7.0205 8.2329 -0.0000 -0.0000 -3.9615 -6.0363 -4.7238 7.5207 -0.0000 -0.0000 -14.3632 -13.1572 20.5230 11.6868 -0.0000 -0.0000
0.2925 36.9436 1.6645 7.4485 2.4396 0.7500 -5.6573 -5.6238 -1.4982 -5.8545 -10.6861 20.8220 -0.7991 9.3501 21.1595 -37.5692 11.0817 -21.9469 0.0000 -9.2861 -11.9632 0.3467 2.0049 -9.8124 32.8623 24.3270 0.0000 -18.6281 -5.2137 -18.0998 -23.5284 -6.8874 19.7691 0.0000 5.6498 26.3810 4.6004 -16.8433 15.5199 33.1476 -26.2537 -0.0000 -6.5073 5.8241 1.0728 10.9766 -0.0000 -0.0000 -15.0495 5.0705 -7.0058 8.1993 -0.0000 -0.0000 -3.9681 -6.0517 -4.7212 7.5217 -0.0000 -0.0000 -14.3665 -13.1600 20.5022 11.6419 -0.0000 -0.0000
0.2912 36.9439 1.6685 7.4544 2.4655 0.7503 -5.6540 -5.6437 -1.4858 -6.0983 -10.8882 21.1364 -0.7964 9.3369 21.1725 -37.5549 11.1058 -21.9488 -0.0000 -9.3182 -11.9761 0.3446 1.9898 -9.8287 32.8623 24.3270 0.0000 -18.6302 -5.2487 -18.0812 -23.5282 -6.8677 19.7803 0.0000 5.6577 26.3626 4.6143 -16.8811 15.5327 33.1476 -26.2537 -0.0000 -6.5100 5.8218 1.0737 10.9746 -0.0000 -0.0000 -15.0395 5.0575 -7.0369 8.2313 -0.0000 -0.0000 -3.9588 -6.0435 -4.7218 7.5186 -0.0000 -0.0000 -14.3734 -13.1622 20.4788 11.6189 -0.0000 -0.0000
0.2892 36.9437 1.6724 7.4643 2.4941 0.7447 -5.6552 -5.6683 -1.4678 -6.3465 -11.1125 21.4211 -0.7911 9.3312 21.1835 -37.5521 11.1293 -21.9465 -0.0000 -9.3541 -11.8960 0.3569 2.0330 -9.9587 32.8623 24.3270 0.0000 -18.6392 -5.2675 -18.0702 -23.5499 -6.8873 19.7932 0.0000 5.6804 26.3967 4.6390 -16.9546 15.5496 33.1476 -26.2537 -0.0000 -6.5140 5.8094 1.0805 10.9660 -0.0000 -0.0000 -15.0373 5.0439 -7.0579 8.2149 -0.0000 -0.0000 -3.9520 -6.0450 -4.7139 7.5084 -0.0000 -0.0000 -14.3759 -13.1855 20.4670 11.6245 -0.0000 -0.0000
0.2870 36.9436 1.6765 7.4729 2.5233 0.7431 -5.6650 -5.6909 -1.4541 -6.5974 -11.2624 21.6872 -0.7730 9.3085 21.1916 -37.5269 11.1577 -21.9473 0.0000 -9.3855 -11.9238 0.3476 1.9868 -9.9270 32.8623 24.3270 0.0000 -18.6633 -5.2801 -18.0516 -23.5364 -6.8753 19.7898 -0.0000 5.6743 26.3856 4.6067 -16.9243 15.4717 33.1476 -26.2537 -0.0000 -6.5211 5.8129 1.0841 10.9675 -0.0000 -0.0000 -15.0411 5.0247 -7.0558 8.2223 -0.0000 -0.0000 -3.9479 -6.0690 -4.7062 7.4974 -0.0000 -0.0000 -14.3846 -13.2230 20.4824 11.6682 -0.0000 -0.0000
0.2845 36.9436 1.6800 7.4883 2.5557 0.7410 -5.6701 -5.7176 -1.4423 -6.8849 -11.4666 21.9533 -0.7576 9.3178 21.1979 -37.5184 11.1654 -21.9657 -0.0000 -9.4233 -11.8903 0.3491 1.9926 -9.9406 32.8623 24.3270 0.0000 -18.6846 -5.3119 -18.0398 -23.5629 -6.8744 19.8064 0.0000 5.6801 26.3858 4.6135 -16.9334 15.4856 33.1476 -26.2537 -0.0000 -6.5352 5.8134 1.0879 10.9669 -0.0000 -0.0000 -15.0382 4.9972 -7.0817 8.2319 -0.0000 -0.0000 -3.9523 -6.0915 -4.7004 7.4945 -0.0000 -0.0000 -14.3861 -13.2353 20.4721 11.6264 -0.0000 -0.0000
0.2817 36.9435 1.6835 7.5004 2.5892 0.7348 -5.6767 -5.7461 -1.4240 -7.1490 -11.6203 22.2003 -0.7528 9.3114 21.2010 -37.5018 11.1791 -21.9817 0.0000 -9.4628 -11.8777 0.3485 2.0010 -9.8812 32.8623 24.3270 0.0000 -18.7240 -5.3339 -18.0310 -23.5861 -6.8857 19.8233 0.0000 5.6974 26.3834 4.6287 -16.9710 15.5026 33.1476 -26.2537 -0.0000 -6.5481 5.7997 1.0958 10.9707 -0.0000 -0.0000 -15.0413 4.9741 -7.0803 8.2642 -0.0000 -0.0000 -3.9484 -6.1056 -4.6880 7.4873 -0.0000 -0.0000 -14.3632 -13.1542 20.2821 11.3513 -0.0000 -0.0000
0.2806 36.9431 1.6890 7.5145 2.6443 0.7289 -5.6937 -5.8065 -1.4012 -7.4398 -11.7963 22.4211 -0.7339 9.3300 21.2033 -37.4864 11.1929 -22.0200 0.0000 -9.5002 -11.8839 0.3420 1.9668 -9.8671 32.8623 24.3270 0.0000 -18.7592 -5.3622 -18.0214 -23.6194 -6.8753 19.8394 0.0000 5.7143 26.4002 4.6293 -16.9926 15.4863 33.1476 -26.2537 -0.0000 -6.5565 5.7567 1.0962 10.9623 -0.0000 -0.0000 -15.0382 4.9677 -7.0796 8.2012 -0.0000 -0.0000 -3.9371 -6.1370 -4.6861 7.4643 -0.0000 -0.0000 -14.3916 -13.2598 20.4613 11.6491 -0.0000 -0.0000
0.2776 36.9428 1.6933 7.5318 2.6821 0.7275 -5.7134 -5.8302 -1.3962 -7.7200 -11.9707 22.6387 -0.7276 9.3124 21.2209 -37.4539 11.2222 -22.0533 -0.0000 -9.5502 -11.8906 0.3408 1.9607 -9.8627 32.8623 24.3270 0.0000 -18.8097 -5.4094 -18.0014 -23.6494 -6.8607 19.8531 0.0000 5.7240 26.3571 4.6220 -17.0007 15.4561 33.1476 -26.2537 -0.0000 -6.5717 5.7435 1.1004 10.9598 -0.0000 -0.0000 -15.0365 4.9383 -7.0609 8.1814 -0.0000 -0.0000 -3.9392 -6.1576 -4.6815 7.4567 -0.0000 -0.0000 -14.4036 -13.2894 20.4681 11.6671 -0.0000 -0.0000
0.2756 36.9426 1.6973 7.5471 2.7204 0.7225 -5.7292 -5.8650 -1.3811 -8.0147 -12.1262 22.8436 -0.6886 9.3293 21.2295 -37.4627 11.2395 -22.1051 0.0000 -9.5853 -11.8844 0.3373 1.9491 -9.8205 32.8623 24.3270 0.0000 -18.8732 -5.4336 -17.9986 -23.6684 -6.8981 19.8872 0.0000 5.7861 26.4964 4.6153 -16.9919 15.4423 33.1476 -26.2537 -0.0000 -6.5827 5.7275 1.1043 10.9542 -0.0000 -0.0000 -15.0315 4.9250 -7.0653 8.1491 -0.0000 -0.0000 -3.9408 -6.1670 -4.6765 7.4583 -0.0000 -0.0000 -14.4166 -13.2924 20.4287 11.6436 -0.0000 -0.0000
0.2715 36.9425 1.6998 7.5682 2.7200 0.7200 -5.7491 -5.8433 -1.3730 -8.3164 -12.2924 23.0324 -0.7276 9.2769 21.2777 -37.3582 11.2926 -22.1743 0.0000 -9.6394 -11.9725 0.3361 1.9571 -9.7460 32.8623 24.3270 0.0000 -18.9305 -5.4749 -17.9722 -23.6696 -6.8912 19.8851 0.0000 5.8079 26.4288 4.6355 -17.0048 15.4961 33.1476 -26.2537 -0.0000 -6.5984 5.7627 1.1147 10.9478 -0.0000 -0.0000 -15.0348 4.9030 -7.0860 8.1932 -0.0000 -0.0000 -3.9570 -6.1267 -4.6656 7.4662 -0.0000 -0.0000 -14.4211 -13.3185 20.4184 11.6384 -0.0000 -0.0000
0.2699 36.9423 1.7052 7.5773 2.7676 0.7102 -5.7677 -5.8860 -1.3552 -8.5883 -12.4531 23.1923 -0.6743 9.2898 21.2956 -37.3760 11.3371 -22.2370 -0.0000 -9.6822 -11.8896 0.3323 1.9203 -9.8211 32.8623 24.3270 0.0000 -18.9599 -5.5036 -17.9530 -23.6780 -6.8803 19.8964 0.0000 5.8196 26.3680 4.6480 -17.0006 15.5394 33.1476 -26.2537 -0.0000 -6.6021 5.7365 1.1207 10.9408 -0.0000 -0.0000 -15.0351 4.8937 -7.0784 8.2138 -0.0000 -0.0000 -3.9481 -6.1653 -4.6561 7.4583 -0.0000 -0.0000 -14.4267 -13.3289 20.4058 11.6375 -0.0000 -0.0000
0.2668 36.9419 1.7095 7.5947 2.8089 0.7042 -5.7839 -5.9248 -1.3380 -8.9311 -12.5844 23.3436 -0.6722 9.2936 21.2948 -37.3254 11.3384 -22.2804 -0.0000 -9.7080 -11.9038 0.3368 1.9379 -9.8605 32.8623 24.3270 0.0000 -19.0393 -5.5337 -17.9554 -23.6731 -6.8717 19.9331 0.0000 5.8306 26.3761 4.6603 -17.0466 15.5399 33.1476 -26.2537 -0.0000 -6.6161 5.7116 1.1266 10.9376 -0.0000 -0.0000 -15.0453 4.8810 -7.0956 8.2355 -0.0000 -0.0000 -3.9515 -6.1965 -4.6458 7.4511 -0.0000 -0.0000 -14.4371 -13.3559 20.4081 11.6611 -0.0000 -0.0000
0.2645 36.9413 1.7152 7.6022 2.8467 0.7004 -5.7934 -5.9599 -1.3270 -9.2330 -12.7567 23.4750 -0.6701 9.2909 21.3152 -37.2660 11.3638 -22.3397 -0.0000 -9.7306 -11.9126 0.3302 1.8887 -9.9180 32.8623 24.3270 0.0000 -19.0590 -5.5850 -17.9451 -23.7420 -6.8669 19.9646 0.0000 5.8402 26.4195 4.6604 -17.0325 15.5522 33.1476 -26.2537 -0.0000 -6.6144 5.6884 1.1299 10.9265 -0.0000 -0.0000 -15.0394 4.8683 -7.0857 8.1880 -0.0000 -0.0000 -3.9430 -6.2120 -4.6387 7.4484 -0.0000 -0.0000 -14.4505 -13.3843 20.4242 11.6543 -0.0000 -0.0000
0.2622 36.9406 1.7205 7.6093 2.8824 0.7003 -5.8044 -5.9950 -1.3217 -9.5504 -12.9050 23.5979 -0.6532 9.2981 21.3319 -37.2335 11.3773 -22.4007 0.0000 -9.7347 -11.9650 0.3336 1.8979 -9.9698 32.8623 24.3270 0.0000 -19.0894 -5.6142 -17.9377 -23.7713 -6.8817 19.9984 -0.0000 5.8524 26.4664 4.6487 -17.0027 15.5398 33.1476 -26.2537 -0.0000 -6.6148 5.6676 1.1287 10.9223 -0.0000 -0.0000 -15.0436 4.8671 -7.0907 8.2181 -0.0000 -0.0000 -3.9322 -6.2120 -4.6389 7.4456 -0.0000 -0.0000 -14.4595 -13.3940 20.4156 11.6457 -0.0000 -0.0000
0.2590 36.9402 1.7242 7.6223 2.9196 0.6929 -5.8158 -6.0255 -1.3085 -9.8989 -13.0660 23.6918 -0.6515 9.3077 21.3403 -37.1903 11.3651 -22.4641 0.0000 -9.7228 -12.0079 0.3383 1.9119 -10.0370 32.8623 24.3270 0.0000 -19.1293 -5.6485 -17.9220 -23.7965 -6.8889 20.0137 0.0000 5.8639 26.5014 4.6581 -17.0451 15.5342 33.1476 -26.2537 -0.0000 -6.6294 5.6553 1.1362 10.9261 -0.0000 -0.0000 -15.0497 4.8500 -7.0598 8.2157 -0.0000 -0.0000 -3.9346 -6.2303 -4.6289 7.4490 -0.0000 -0.0000 -14.4681 -13.3956 20.4018 11.6180 -0.0000 -0.0000
0.2551 36.9397 1.7292 7.6245 2.9519 0.6865 -5.8157 -6.0477 -1.3018 -10.2524 -13.1953 23.7824 -0.6539 9.3025 21.3628 -37.1665 11.3768 -22.5235 0.0000 -9.6959 -12.0149 0.3386 1.9060 -10.0742 32.8623 24.3270 0.0000 -19.1671 -5.6791 -17.9026 -23.7734 -6.8837 20.0274 0.0000 5.8603 26.4722 4.6697 -17.0343 15.5802 33.1476 -26.2537 -0.0000 -6.6255 5.6356 1.1477 10.9204 -0.0000 -0.0000 -15.0596 4.8356 -7.0897 8.2352 -0.0000 -0.0000 -3.9209 -6.2307 -4.6157 7.4454 -0.0000 -0.0000 -14.4847 -13.4310 20.3770 11.6598 -0.0000 -0.0000
0.2512 36.9392 1.7348 7.6251 2.9894 0.6783 -5.8143 -6.0725 -1.2890 -10.6120 -13.3639 23.8395 -0.6611 9.2908 21.3687 -37.1285 11.3778 -22.5705 0.0000 -9.6721 -12.0254 0.3487 1.9485 -10.1495 32.8623 24.3270 0.0000 -19.1998 -5.7189 -17.8845 -23.7289 -6.8420 20.0436 0.0000 5.8099 26.4503 4.6322 -16.9841 15.5030 33.1476 -26.2537 -0.0000 -6.6196 5.6215 1.1591 10.9145 -0.0000 -0.0000 -15.0577 4.8211 -7.0881 8.2002 -0.0000 -0.0000 -3.9060 -6.2499 -4.6019 7.4451 -0.0000 -0.0000 -14.4937 -13.4490 20.3825 11.6409 -0.0000 -0.0000
0.2478 36.9386 1.7390 7.6285 3.0172 0.6780 -5.8068 -6.0915 -1.2926 -10.9976 -13.5004 23.8972 -0.6712 9.2907 21.3962 -37.1062 11.3891 -22.6349 0.0000 -9.6372 -12.0115 0.3497 1.9449 -10.1956 32.8623 24.3270 0.0000 -19.2148 -5.7582 -17.8805 -23.7472 -6.8911 20.0825 0.0000 5.8701 26.4580 4.6636 -17.0669 15.5332 33.1476 -26.2537 -0.0000 -6.6199 5.6086 1.1624 10.9138 -0.0000 -0.0000 -15.0701 4.8048 -7.0991 8.2555 -0.0000 -0.0000 -3.9068 -6.2977 -4.5935 7.4461 -0.0000 -0.0000 -14.5088 -13.4843 20.4024 11.6788 -0.0000 -0.0000
0.2436 36.9377 1.7444 7.6275 3.0523 0.6746 -5.7984 -6.1209 -1.2957 -11.3924 -13.6436 23.9366 -0.6760 9.3017 21.4216 -37.0812 11.3864 -22.7008 0.0000 -9.6049 -12.0218 0.3472 1.9517 -10.0898 32.8623 24.3270 0.0000 -19.2636 -5.7855 -17.8576 -23.7325 -6.8933 20.0902 0.0000 5.8557 26.4355 4.6761 -17.0776 15.5640 33.1476 -26.2537 -0.0000 -6.6155 5.5893 1.1700 10.9142 -0.0000 -0.0000 -15.0627 4.7907 -7.1173 8.2071 -0.0000 -0.0000 -3.8940 -6.2927 -4.5890 7.4649 -0.0000 -0.0000 -14.5288 -13.4695 20.3752 11.6249 -0.0000 -0.0000
